<svg width="64" height="64" viewBox="0 0 64 64" fill="none" xmlns="http://www.w3.org/2000/svg">
  <defs>
    <linearGradient id="bg" x1="8" y1="6" x2="56" y2="58" gradientUnits="userSpaceOnUse">
      <stop stop-color="#1F8B81" />
      <stop offset="1" stop-color="#102F47" />
    </linearGradient>
    <linearGradient id="pin" x1="32" y1="11" x2="32" y2="49" gradientUnits="userSpaceOnUse">
      <stop stop-color="#F7A541" />
      <stop offset="1" stop-color="#E35A29" />
    </linearGradient>
  </defs>
  <rect x="2" y="2" width="60" height="60" rx="18" fill="url(#bg)" />
  <path d="M15 18C21 11.7 29 8.5 37.5 8.5C46 8.5 53.2 11.5 57.5 16.2V24C52.5 18.1 45.2 14.9 37 14.9C28.4 14.9 20.6 18.2 15 24.1V18Z" fill="#FFF6DF" fill-opacity="0.14" />
  <path d="M32 11C22.4 11 14.6 18.8 14.6 28.4C14.6 34.5 17.6 40.1 22.2 43.8L32 51L41.8 43.8C46.4 40.1 49.4 34.5 49.4 28.4C49.4 18.8 41.6 11 32 11Z" fill="url(#pin)" />
  <circle cx="32" cy="28" r="8.7" fill="#FFF8EE" />
  <path d="M26.7 28.7L30.2 32.2L37.6 24.9" stroke="#123C50" stroke-width="3.3" stroke-linecap="round" stroke-linejoin="round" />
  <path d="M19.5 44.8C22.8 42.2 27 40.8 31.9 40.8C36.9 40.8 41.2 42.2 44.5 44.8" stroke="#FFF8EE" stroke-width="3" stroke-linecap="round" opacity="0.9" />
  <circle cx="48.5" cy="16.5" r="3.3" fill="#FFF8EE" fill-opacity="0.82" />
</svg>
